# xmcd
#
# Track frame offsets: 
#        150
#        19514
#        37941
#        52912
#        67516
#        85908
#        104215
#        119920
#        136928
#        151632
#        168193
#        190251
#
# Disc length: 2766 seconds
#
# Revision: 0
# Processed by: cddbd v1.5.2PL0 Copyright (c) Steve Scherf et al.
# Submitted via: ExactAudioCopyFreeDBPlugin 1.0
#
DISCID=8f0acc0c
DTITLE=Rumer - This Girl's In Love
DYEAR=2016
DGENRE=Easy Listening
TTITLE0=The Look Of Love
TTITLE1=Balance Of Nature
TTITLE2=One Less Bell To Answer
TTITLE3=Are You There (With Another Girl)
TTITLE4=(They Long To Be) Close To You
TTITLE5=You'll Never Get To Heaven (If You Break My Heart)
TTITLE6=Land Of Make Believe
TTITLE7=A House Is Not A Home
TTITLE8=Walk On By
TTITLE9=The Last One To Be Loved
TTITLE10=This Girl's In Love With You
TTITLE11=What The World Needs Now Is Love
EXTD=
EXTT0=
EXTT1=
EXTT2=
EXTT3=
EXTT4=
EXTT5=
EXTT6=
EXTT7=
EXTT8=
EXTT9=
EXTT10=
EXTT11=
PLAYORDER=
